<svg width="35" height="35" viewBox="0 0 35 35" fill="none" xmlns="http://www.w3.org/2000/svg">
<path d="M30.4895 0H4.12021C1.84585 0 0 1.84585 0 4.12021V30.4895C0 32.7639 1.84585 34.6098 4.12021 34.6098H30.4895C32.7639 34.6098 34.6098 32.7639 34.6098 30.4895V4.12021C34.6098 1.84585 32.7639 0 30.4895 0ZM27.1934 12.3606H25.5453C23.7818 12.3606 23.0732 12.7726 23.0732 14.0087V16.4808H27.1934L26.3693 20.601H23.0732V32.9617H18.953V20.601H15.6568V16.4808H18.953V14.0087C18.953 10.7125 20.601 8.24042 23.8972 8.24042C26.2869 8.24042 27.1934 9.06446 27.1934 9.06446V12.3606Z" fill="#9C78DE"/>
</svg>
