<svg width="34" height="34" viewBox="0 0 34 34" fill="none" xmlns="http://www.w3.org/2000/svg">
<path d="M4.80507 0C2.27811 0 0.195312 2.08279 0.195312 4.60976V29.1951C0.195312 31.7221 2.27811 33.8049 4.80507 33.8049H29.3904C31.9174 33.8049 34.0002 31.7221 34.0002 29.1951V4.60976C34.0002 2.08279 31.9174 0 29.3904 0H4.80507ZM24.7807 4.60976H29.3904V9.21951H24.7807V4.60976ZM17.0978 10.7561C20.5131 10.7561 23.2441 13.4871 23.2441 16.9024C23.2441 20.3177 20.5131 23.0488 17.0978 23.0488C13.6825 23.0488 10.9514 20.3177 10.9514 16.9024C10.9514 13.4871 13.6825 10.7561 17.0978 10.7561ZM3.26848 13.8293H8.40644C8.06431 14.7896 7.87824 15.828 7.87824 16.9024C7.87824 21.9744 12.0258 26.122 17.0978 26.122C22.1697 26.122 26.3173 21.9744 26.3173 16.9024C26.3173 15.828 26.1312 14.7896 25.7891 13.8293H30.927V29.1951C30.927 30.0655 30.2608 30.7317 29.3904 30.7317H4.80507C3.93474 30.7317 3.26848 30.0655 3.26848 29.1951V13.8293Z" fill="#9C78DE"/>
</svg>
