<svg width="35" height="35" viewBox="0 0 35 35" fill="none" xmlns="http://www.w3.org/2000/svg">
<path d="M5.23722 0C2.51016 0 0.292969 2.21719 0.292969 4.94425V29.6655C0.292969 32.3926 2.51016 34.6098 5.23722 34.6098H29.9585C32.6855 34.6098 34.9027 32.3926 34.9027 29.6655V4.94425C34.9027 2.21719 32.6855 0 29.9585 0H5.23722ZM27.4323 12.9246C27.4323 19.6225 22.3335 27.3402 13.0167 27.3402C10.1428 27.3402 7.47758 26.5058 5.23722 25.0689C5.64667 25.1152 6.04066 25.1307 6.45783 25.1307C8.82953 25.1307 11.0081 24.3273 12.7463 22.9676C10.5214 22.9212 8.65184 21.4611 8.01064 19.4525C8.7909 19.5684 9.49391 19.5684 10.2974 19.3598C7.97973 18.8886 6.24152 16.8491 6.24152 14.3847V14.3229C6.91363 14.7014 7.70162 14.9332 8.52824 14.9641C7.83295 14.5006 7.26127 13.8748 6.86728 13.1409C6.47328 12.407 6.2647 11.5804 6.27242 10.746C6.27242 9.80352 6.51964 8.93828 6.95998 8.18892C9.45528 11.2636 13.2021 13.2722 17.4047 13.4885C16.6863 10.0507 19.2588 7.26187 22.349 7.26187C23.8091 7.26187 25.1224 7.87217 26.0494 8.86102C27.1928 8.64471 28.2898 8.21982 29.2632 7.64041C28.8846 8.81467 28.0889 9.80352 27.0383 10.4293C28.058 10.3211 29.0469 10.0353 29.9585 9.64129C29.2709 10.6533 28.4057 11.5495 27.4168 12.2679C27.4323 12.4842 27.4323 12.7083 27.4323 12.9246Z" fill="#9C78DE"/>
</svg>
